<svg width="67" height="77" viewBox="0 0 67 77" fill="none" xmlns="http://www.w3.org/2000/svg">
<path d="M54.5165 50.67L33.4365 62.83V50.67L43.9765 44.58V32.42L54.5165 26.33V50.67ZM1.8165 20.25V56.75L12.3465 50.67V26.33L33.4365 14V1.86L1.8165 20.25Z" fill="#31DDAB"/>
<path d="M66.1465 20.25C66.1551 20.049 66.1083 19.8494 66.0113 19.6731C65.9144 19.4968 65.7709 19.3504 65.5965 19.25L33.9865 1.05C33.837 0.965297 33.6683 0.920524 33.4965 0.919998V0.919998C33.3247 0.920524 33.156 0.965297 33.0065 1.05V1.05L1.2865 19.3C1.11213 19.4004 0.968646 19.5468 0.87167 19.7231C0.774694 19.8994 0.727939 20.099 0.7365 20.3V56.8C0.73529 56.9752 0.780121 57.1476 0.866501 57.3C0.957554 57.4458 1.08068 57.569 1.2265 57.66C1.2265 57.66 1.2265 57.66 1.2265 57.66L32.8365 75.9C33.0015 75.9977 33.1898 76.0492 33.3815 76.0492C33.5733 76.0492 33.7615 75.9977 33.9265 75.9L65.5265 57.66C65.6841 57.5642 65.8149 57.4301 65.9065 57.27V57.27C65.9912 57.1205 66.036 56.9518 66.0365 56.78L66.1465 20.25ZM33.4365 15.43L52.3165 26.33L43.9765 31.15L33.9765 25.38H33.8565C33.7869 25.3463 33.7128 25.3227 33.6365 25.31H33.4365H33.2265C33.1534 25.3227 33.0826 25.3463 33.0165 25.38H32.8865L22.8865 31.15L14.5465 26.33L33.4365 15.43ZM33.4365 49.43L24.0065 44V33.05L33.4365 27.6L42.8765 33.05V44L33.4365 49.43ZM34.5365 51.33L44.5365 45.56C44.5365 45.56 44.5965 45.5 44.6365 45.47C44.6977 45.4254 44.7546 45.3752 44.8065 45.32C44.8488 45.2672 44.8857 45.2102 44.9165 45.15C44.9543 45.0943 44.9846 45.0337 45.0065 44.97C45.0154 44.8936 45.0154 44.8164 45.0065 44.74C45.0122 44.6968 45.0122 44.6531 45.0065 44.61V33.05L53.3465 28.23V50L34.4665 60.9L34.5365 51.33ZM2.9265 20.88L32.3465 3.88V13.51L11.8165 25.38V25.43C11.7742 25.4568 11.734 25.4868 11.6965 25.52C11.6583 25.5481 11.6246 25.5818 11.5965 25.62C11.5641 25.6582 11.5341 25.6982 11.5065 25.74V25.79C11.5065 25.79 11.5065 25.79 11.5065 25.85C11.5065 25.91 11.5065 25.93 11.5065 25.98C11.502 26.0299 11.502 26.0801 11.5065 26.13C11.5065 26.13 11.5065 26.13 11.5065 26.2C11.5065 26.27 11.5065 26.2 11.5065 26.27C11.5065 26.34 11.5065 26.27 11.5065 26.33V50L3.1565 54.82L2.9265 20.88ZM33.4365 73.73L4.0265 56.73L12.3665 51.91L32.8965 63.76C33.0499 63.8346 33.2163 63.8787 33.3865 63.89V63.89C33.5537 63.8801 33.7171 63.8358 33.8665 63.76H33.9265L54.5165 51.93L62.8565 56.75L33.4365 73.73Z" fill="#621E95"/>
</svg>
