<svg width="345" height="88" viewBox="0 0 345 88" fill="none" xmlns="http://www.w3.org/2000/svg">
<path d="M54.2647 59.1976L32.9952 71.4672V59.1976L43.6299 53.0528V40.7835L54.2647 34.6388V59.1976ZM1.09082 28.5041V65.3325L11.7155 59.1976V34.6388L32.9952 22.1979V9.94873L1.09082 28.5041Z" fill="#31DDAB"/>
<path d="M65.9989 28.5038C66.008 28.301 65.9607 28.0996 65.8627 27.9217C65.7647 27.7438 65.62 27.5962 65.444 27.4948L33.55 9.13117C33.3992 9.04571 33.2289 9.00054 33.0556 9C32.8822 9.00054 32.712 9.04571 32.5612 9.13117L0.555955 27.5452C0.380011 27.6466 0.235236 27.7943 0.137388 27.9722C0.0395401 28.15 -0.00763197 28.3514 0.00100485 28.5543V65.3824C-0.000214334 65.559 0.045015 65.7333 0.132175 65.8871C0.224047 66.0341 0.348278 66.1583 0.495411 66.25L32.3896 84.654C32.5561 84.7525 32.7461 84.805 32.9395 84.805C33.133 84.805 33.3229 84.7525 33.4894 84.654L65.3733 66.25C65.5329 66.1538 65.6645 66.0182 65.7568 65.8569C65.8422 65.706 65.8878 65.5356 65.8884 65.3624L65.9989 28.5038ZM32.995 23.6405L52.0448 34.6385L43.6298 39.5018L33.5399 33.6799H33.4188C33.3486 33.6459 33.2738 33.6221 33.1968 33.6093H32.995H32.7831C32.7094 33.6221 32.6379 33.6459 32.5713 33.6799H32.4401L22.3501 39.5018L13.9352 34.6385L32.995 23.6405ZM32.995 57.9462L23.4802 52.4674V41.4189L32.995 35.9199L42.5199 41.4189V52.4674L32.995 57.9462ZM34.1049 59.8633L44.1949 54.0414C44.1949 54.0414 44.2554 53.9809 44.2957 53.9506C44.3575 53.9055 44.4149 53.8549 44.4672 53.7992C44.51 53.746 44.5472 53.6885 44.5783 53.6277C44.6164 53.5715 44.647 53.5104 44.6691 53.4461C44.678 53.369 44.678 53.2911 44.6691 53.214C44.6748 53.1705 44.6748 53.1264 44.6691 53.0828V41.4189L53.0841 36.5556V58.5213L34.0343 69.519L34.1049 59.8633ZM2.2107 29.1395L31.8952 11.9866V21.7032L11.1806 33.6799V33.7304C11.1379 33.7574 11.0974 33.7877 11.0596 33.8212C11.021 33.8495 10.987 33.8836 10.9587 33.9221C10.926 33.9606 10.8956 34.001 10.8678 34.0432V34.0936C10.8678 34.0936 10.8678 34.0936 10.8678 34.1542C10.8678 34.2147 10.8678 34.2349 10.8678 34.2853C10.8633 34.3357 10.8633 34.3863 10.8678 34.4367C10.8678 34.4367 10.8678 34.4367 10.8678 34.5073C10.8678 34.5779 10.8678 34.5073 10.8678 34.5779C10.8678 34.6486 10.8678 34.5779 10.8678 34.6385V58.5213L2.44276 63.3846L2.2107 29.1395ZM32.995 82.4646L3.32059 65.3117L11.7356 60.4485L32.4501 72.4052C32.6049 72.4804 32.7728 72.5248 32.9446 72.5362C33.1133 72.526 33.2782 72.4815 33.4289 72.4052H33.4894L54.2646 60.4687L62.6798 65.3322L32.995 82.4646Z" fill="white"/>
<path d="M85.009 65V27.004H94.39L104.715 48.067L114.981 27.004H124.303V65H114.804V43.17L107.311 58.51H102.06L94.508 43.17V65H85.009ZM139.028 65.59C137.258 65.59 135.606 65.2753 134.072 64.646C132.577 64.0167 131.378 63.053 130.473 61.755C129.568 60.4177 129.116 58.7657 129.116 56.799C129.116 53.9277 130.08 51.6857 132.007 50.073C133.974 48.421 136.904 47.595 140.798 47.595H148.586V46.946C148.586 45.53 148.114 44.527 147.17 43.937C146.226 43.3077 144.456 42.993 141.86 42.993C138.674 42.993 135.547 43.4847 132.479 44.468V38.332C133.856 37.7813 135.527 37.329 137.494 36.975C139.5 36.621 141.604 36.444 143.807 36.444C148.134 36.444 151.516 37.329 153.955 39.099C156.433 40.869 157.672 43.6813 157.672 47.536V65H149.353L148.881 62.64C147.858 63.584 146.541 64.3117 144.928 64.823C143.355 65.3343 141.388 65.59 139.028 65.59ZM142.037 59.749C143.532 59.749 144.83 59.4933 145.931 58.982C147.032 58.4707 147.917 57.8217 148.586 57.035V53.082H141.86C139.067 53.082 137.671 54.203 137.671 56.445C137.671 57.4677 138.025 58.274 138.733 58.864C139.441 59.454 140.542 59.749 142.037 59.749ZM163.368 65V37.034H172.218L172.513 39.453C173.654 38.6663 175.09 37.978 176.82 37.388C178.551 36.7587 180.4 36.444 182.366 36.444C185.985 36.444 188.62 37.3093 190.272 39.04C191.924 40.7707 192.75 43.4453 192.75 47.064V65H183.251V47.831C183.251 46.2577 182.917 45.1367 182.248 44.468C181.58 43.7993 180.38 43.465 178.649 43.465C177.627 43.465 176.584 43.701 175.522 44.173C174.46 44.645 173.575 45.235 172.867 45.943V65H163.368ZM205.278 75.384C203.862 75.384 202.643 75.3053 201.62 75.148C200.637 75.03 199.654 74.7743 198.67 74.381V67.773C199.339 68.009 199.949 68.1663 200.499 68.245C201.089 68.3237 201.679 68.363 202.269 68.363C203.882 68.363 205.082 68.068 205.868 67.478C206.694 66.9273 207.52 65.9243 208.346 64.469L195.779 37.034H205.75L213.125 54.793L220.382 37.034H230.294L219.615 62.699C218.553 65.2557 217.373 67.478 216.075 69.366C214.777 71.2933 213.263 72.7683 211.532 73.791C209.802 74.853 207.717 75.384 205.278 75.384ZM242.563 65.59C239.495 65.59 237.293 64.9213 235.955 63.584C234.618 62.2467 233.949 60.103 233.949 57.153V25.234H243.448V56.209C243.448 57.1137 243.625 57.743 243.979 58.097C244.373 58.4117 244.943 58.569 245.69 58.569C246.752 58.569 247.696 58.4313 248.522 58.156V64.587C247.618 64.941 246.713 65.1967 245.808 65.354C244.943 65.5113 243.861 65.59 242.563 65.59ZM266.672 65.59C261.283 65.59 257.311 64.351 254.754 61.873C252.197 59.3557 250.919 55.737 250.919 51.017C250.919 46.3363 252.197 42.7373 254.754 40.22C257.35 37.7027 261.323 36.444 266.672 36.444C272.061 36.444 276.033 37.7027 278.59 40.22C281.186 42.7373 282.484 46.3363 282.484 51.017C282.484 55.737 281.206 59.3557 278.649 61.873C276.092 64.351 272.1 65.59 266.672 65.59ZM266.672 58.156C268.875 58.156 270.448 57.6053 271.392 56.504C272.336 55.4027 272.808 53.5737 272.808 51.017C272.808 48.4603 272.336 46.6313 271.392 45.53C270.448 44.4287 268.875 43.878 266.672 43.878C264.509 43.878 262.955 44.4287 262.011 45.53C261.067 46.6313 260.595 48.4603 260.595 51.017C260.595 53.5737 261.067 55.4027 262.011 56.504C262.955 57.6053 264.509 58.156 266.672 58.156ZM299.339 75.384C297.962 75.384 296.507 75.325 294.973 75.207C293.439 75.089 291.984 74.912 290.607 74.676C289.23 74.44 288.05 74.1647 287.067 73.85V67.36C288.64 67.8713 290.528 68.2647 292.731 68.54C294.934 68.8153 296.959 68.953 298.808 68.953C301.207 68.953 302.997 68.8153 304.177 68.54C305.396 68.304 306.006 67.8713 306.006 67.242C306.006 66.6913 305.77 66.3177 305.298 66.121C304.826 65.9243 303.902 65.826 302.525 65.826H294.796C292.279 65.826 290.312 65.3737 288.896 64.469C287.519 63.5643 286.831 62.2467 286.831 60.516C286.831 59.336 287.185 58.215 287.893 57.153C288.64 56.091 289.722 55.3043 291.138 54.793C289.525 53.967 288.306 52.9247 287.48 51.666C286.654 50.4073 286.241 48.8143 286.241 46.887C286.241 43.2683 287.401 40.633 289.722 38.981C292.082 37.2897 295.524 36.444 300.047 36.444C300.991 36.444 302.033 36.5227 303.174 36.68C304.354 36.798 305.219 36.916 305.77 37.034H316.508L316.272 42.934H312.201C313.184 43.9173 313.676 45.3727 313.676 47.3C313.676 50.014 312.791 52.197 311.021 53.849C309.29 55.501 306.655 56.327 303.115 56.327C302.525 56.327 301.935 56.3073 301.345 56.268C300.794 56.1893 300.244 56.1303 299.693 56.091C298.67 56.209 297.785 56.4253 297.038 56.74C296.33 57.0547 295.976 57.507 295.976 58.097C295.976 58.569 296.153 58.8837 296.507 59.041C296.9 59.1983 297.471 59.277 298.218 59.277H305.357C308.228 59.277 310.451 59.9457 312.024 61.283C313.637 62.581 314.443 64.4887 314.443 67.006C314.443 72.5913 309.408 75.384 299.339 75.384ZM300.106 51.076C302.191 51.076 303.626 50.722 304.413 50.014C305.2 49.306 305.593 48.126 305.593 46.474C305.593 44.822 305.18 43.6223 304.354 42.875C303.567 42.1277 302.151 41.754 300.106 41.754C298.179 41.754 296.782 42.1277 295.917 42.875C295.091 43.583 294.678 44.7827 294.678 46.474C294.678 48.0473 295.071 49.2077 295.858 49.955C296.645 50.7023 298.061 51.076 300.106 51.076ZM329.434 65.59C327.192 65.59 325.068 65.4327 323.062 65.118C321.056 64.8033 319.463 64.41 318.283 63.938V56.681C319.66 57.271 321.253 57.7233 323.062 58.038C324.871 58.3527 326.484 58.51 327.9 58.51C329.591 58.51 330.811 58.4313 331.558 58.274C332.345 58.1167 332.738 57.684 332.738 56.976C332.738 56.1893 332.109 55.5993 330.85 55.206C329.591 54.8127 327.861 54.2423 325.658 53.495C323.101 52.5903 321.154 51.548 319.817 50.368C318.519 49.1487 317.87 47.359 317.87 44.999C317.87 42.2457 318.893 40.1413 320.938 38.686C323.023 37.1913 326.327 36.444 330.85 36.444C332.62 36.444 334.37 36.5817 336.101 36.857C337.832 37.1323 339.248 37.447 340.349 37.801V44.94C339.248 44.4287 337.989 44.055 336.573 43.819C335.157 43.583 333.879 43.465 332.738 43.465C331.283 43.465 330.044 43.5633 329.021 43.76C328.038 43.9173 327.546 44.3303 327.546 44.999C327.546 45.7463 328.097 46.2773 329.198 46.592C330.299 46.8673 331.892 47.3393 333.977 48.008C336.18 48.6767 337.891 49.4043 339.11 50.191C340.329 50.9383 341.195 51.843 341.706 52.905C342.217 53.967 342.473 55.3043 342.473 56.917C342.473 59.7097 341.372 61.8533 339.169 63.348C336.966 64.8427 333.721 65.59 329.434 65.59Z" fill="white"/>
</svg>
