<svg width="223" height="58" viewBox="0 0 223 58" fill="none" xmlns="http://www.w3.org/2000/svg">
<path d="M35.0754 38.9158L21.3273 46.8466V38.9158L28.2014 34.944V27.0134L35.0754 23.0416V38.9158ZM0.705078 19.0763V42.8813L7.57261 38.9158V23.0416L21.3273 15.0001V7.08252L0.705078 19.0763Z" fill="#31DDAB"/>
<path d="M42.6602 19.0766C42.666 18.9454 42.6355 18.8153 42.5721 18.7003C42.5088 18.5853 42.4153 18.4899 42.3015 18.4243L21.6859 6.55451C21.5885 6.49927 21.4784 6.47007 21.3664 6.46973C21.2543 6.47007 21.1443 6.49927 21.0468 6.55451L0.359356 18.4569C0.24563 18.5224 0.152051 18.6179 0.0888044 18.7329C0.0255578 18.8479 -0.00493313 18.978 0.00064951 19.1091V42.914C-0.000138541 43.0281 0.0290967 43.1408 0.0854349 43.2403C0.144819 43.3353 0.225119 43.4155 0.320222 43.4748L20.9359 55.3707C21.0435 55.4344 21.1663 55.4683 21.2913 55.4683C21.4164 55.4683 21.5392 55.4344 21.6468 55.3707L42.2558 43.4748C42.3589 43.4126 42.444 43.3249 42.5036 43.2207C42.5589 43.1231 42.5883 43.013 42.5887 42.9011L42.6602 19.0766ZM21.3272 15.933L33.6405 23.0418L28.2013 26.1854L21.6794 22.4223H21.6012C21.5558 22.4003 21.5074 22.3849 21.4577 22.3766H21.3272H21.1903C21.1426 22.3849 21.0964 22.4002 21.0533 22.4223H20.9685L14.4466 26.1854L9.00737 23.0418L21.3272 15.933ZM21.3272 38.1074L15.1771 34.566V27.4246L21.3272 23.8701L27.4839 27.4246V34.566L21.3272 38.1074ZM22.0446 39.3466L28.5665 35.5834C28.5665 35.5834 28.6056 35.5443 28.6317 35.5248C28.6717 35.4956 28.7087 35.4629 28.7426 35.4269C28.7702 35.3925 28.7943 35.3553 28.8144 35.316C28.839 35.2797 28.8588 35.2402 28.8731 35.1986C28.8788 35.1488 28.8788 35.0985 28.8731 35.0486C28.8767 35.0205 28.8767 34.992 28.8731 34.9638V27.4246L34.3123 24.281V38.4791L21.999 45.5878L22.0446 39.3466ZM1.42894 19.4874L20.6164 8.40021V14.6808L7.22689 22.4223V22.4549C7.19931 22.4723 7.17313 22.4919 7.14864 22.5136C7.12374 22.5319 7.10176 22.5539 7.08342 22.5788C7.06232 22.6037 7.04269 22.6298 7.02472 22.6571V22.6897C7.02472 22.6897 7.02472 22.6897 7.02472 22.7288C7.02472 22.7679 7.02472 22.781 7.02472 22.8136C7.02178 22.8461 7.02178 22.8789 7.02472 22.9114C7.02472 22.9114 7.02472 22.9114 7.02472 22.957C7.02472 23.0027 7.02472 22.957 7.02472 23.0027C7.02472 23.0484 7.02472 23.0027 7.02472 23.0418V38.4791L1.57895 41.6227L1.42894 19.4874ZM21.3272 53.9555L2.14635 42.8683L7.5856 39.7248L20.975 47.4534C21.0751 47.502 21.1836 47.5307 21.2946 47.5381C21.4037 47.5314 21.5102 47.5027 21.6077 47.4534H21.6468L35.0754 39.7379L40.5147 42.8816L21.3272 53.9555Z" fill="white"/>
<path d="M54.0047 41.4697V20.6564H59.1434L64.7992 32.1942L70.4227 20.6564H75.5291V41.4697H70.3257V29.5118L66.2212 37.9147H63.3449L59.208 29.5118V41.4697H54.0047ZM83.5951 41.7929C82.6256 41.7929 81.7206 41.6205 80.8804 41.2758C80.0616 40.9311 79.4045 40.4032 78.9089 39.6922C78.4133 38.9596 78.1656 38.0547 78.1656 36.9774C78.1656 35.4046 78.6934 34.1764 79.7492 33.2931C80.8265 32.3881 82.4317 31.9357 84.5647 31.9357H88.8308V31.5802C88.8308 30.8045 88.5722 30.2551 88.0551 29.9319C87.538 29.5872 86.5685 29.4148 85.1464 29.4148C83.4012 29.4148 81.6883 29.6841 80.0077 30.2228V26.8616C80.7618 26.56 81.6775 26.3122 82.7548 26.1183C83.8537 25.9244 85.0064 25.8274 86.213 25.8274C88.583 25.8274 90.436 26.3122 91.7718 27.2818C93.1292 28.2513 93.8079 29.7919 93.8079 31.9033V41.4697H89.2509L88.9924 40.177C88.4322 40.6941 87.7104 41.0927 86.827 41.3728C85.9652 41.6529 84.8879 41.7929 83.5951 41.7929ZM85.2434 38.5933C86.0621 38.5933 86.7732 38.4533 87.3764 38.1732C87.9797 37.8931 88.4645 37.5376 88.8308 37.1067V34.9413H85.1464C83.6167 34.9413 82.8518 35.5554 82.8518 36.7835C82.8518 37.3437 83.0457 37.7854 83.4335 38.1086C83.8214 38.4318 84.4247 38.5933 85.2434 38.5933ZM96.9282 41.4697V26.1506H101.776L101.938 27.4757C102.562 27.0447 103.349 26.6677 104.297 26.3445C105.245 25.9998 106.258 25.8274 107.335 25.8274C109.317 25.8274 110.761 26.3014 111.666 27.2494C112.57 28.1975 113.023 29.6626 113.023 31.6448V41.4697H107.82V32.0649C107.82 31.2031 107.636 30.589 107.27 30.2228C106.904 29.8565 106.247 29.6733 105.299 29.6733C104.739 29.6733 104.168 29.8026 103.586 30.0612C103.004 30.3197 102.519 30.6429 102.132 31.0307V41.4697H96.9282ZM119.885 47.1578C119.11 47.1578 118.442 47.1148 117.882 47.0286C117.343 46.9639 116.804 46.8239 116.266 46.6084V42.9887C116.632 43.118 116.966 43.2042 117.268 43.2473C117.591 43.2904 117.914 43.3119 118.237 43.3119C119.121 43.3119 119.778 43.1503 120.209 42.8271C120.661 42.5255 121.114 41.9761 121.566 41.1789L114.682 26.1506H120.144L124.184 35.8786L128.159 26.1506H133.589L127.739 40.2093C127.157 41.6098 126.511 42.8271 125.8 43.8613C125.089 44.9171 124.259 45.725 123.311 46.2852C122.363 46.867 121.221 47.1578 119.885 47.1578ZM140.309 41.7929C138.629 41.7929 137.422 41.4266 136.69 40.6941C135.957 39.9615 135.591 38.7873 135.591 37.1713V19.6868H140.794V36.6542C140.794 37.1498 140.891 37.4945 141.085 37.6884C141.301 37.8608 141.613 37.947 142.022 37.947C142.604 37.947 143.121 37.8716 143.574 37.7207V41.2435C143.078 41.4374 142.582 41.5775 142.087 41.6636C141.613 41.7498 141.02 41.7929 140.309 41.7929ZM153.515 41.7929C150.564 41.7929 148.388 41.1142 146.987 39.7568C145.587 38.3779 144.886 36.3957 144.886 33.8102C144.886 31.2462 145.587 29.2747 146.987 27.8958C148.409 26.5169 150.585 25.8274 153.515 25.8274C156.467 25.8274 158.643 26.5169 160.044 27.8958C161.466 29.2747 162.177 31.2462 162.177 33.8102C162.177 36.3957 161.477 38.3779 160.076 39.7568C158.676 41.1142 156.489 41.7929 153.515 41.7929ZM153.515 37.7207C154.722 37.7207 155.584 37.4191 156.101 36.8158C156.618 36.2125 156.877 35.2106 156.877 33.8102C156.877 32.4097 156.618 31.4078 156.101 30.8045C155.584 30.2012 154.722 29.8996 153.515 29.8996C152.33 29.8996 151.479 30.2012 150.962 30.8045C150.445 31.4078 150.187 32.4097 150.187 33.8102C150.187 35.2106 150.445 36.2125 150.962 36.8158C151.479 37.4191 152.33 37.7207 153.515 37.7207ZM171.41 47.1578C170.656 47.1578 169.858 47.1255 169.018 47.0609C168.178 46.9962 167.381 46.8993 166.627 46.77C165.872 46.6407 165.226 46.4899 164.687 46.3176V42.7625C165.549 43.0426 166.583 43.258 167.79 43.4089C168.997 43.5597 170.106 43.6351 171.119 43.6351C172.433 43.6351 173.413 43.5597 174.06 43.4089C174.728 43.2796 175.062 43.0426 175.062 42.6978C175.062 42.3962 174.932 42.1915 174.674 42.0838C174.415 41.9761 173.909 41.9222 173.155 41.9222H168.921C167.542 41.9222 166.465 41.6744 165.689 41.1789C164.935 40.6833 164.558 39.9615 164.558 39.0135C164.558 38.3671 164.752 37.7531 165.14 37.1713C165.549 36.5896 166.142 36.1587 166.917 35.8786C166.034 35.4261 165.366 34.8551 164.914 34.1657C164.461 33.4762 164.235 32.6036 164.235 31.5478C164.235 29.5656 164.871 28.122 166.142 27.2171C167.435 26.2906 169.32 25.8274 171.798 25.8274C172.315 25.8274 172.886 25.8705 173.51 25.9567C174.157 26.0213 174.631 26.086 174.932 26.1506H180.815L180.685 29.3825H178.455C178.994 29.9211 179.263 30.7183 179.263 31.7741C179.263 33.2607 178.778 34.4565 177.809 35.3615C176.861 36.2664 175.417 36.7189 173.478 36.7189C173.155 36.7189 172.832 36.7081 172.509 36.6865C172.207 36.6434 171.905 36.6111 171.604 36.5896C171.043 36.6542 170.559 36.7727 170.149 36.9451C169.761 37.1175 169.568 37.3652 169.568 37.6884C169.568 37.947 169.665 38.1193 169.858 38.2055C170.074 38.2917 170.386 38.3348 170.796 38.3348H174.706C176.279 38.3348 177.496 38.7011 178.358 39.4336C179.242 40.1447 179.683 41.1896 179.683 42.5686C179.683 45.6281 176.925 47.1578 171.41 47.1578ZM171.83 33.8425C172.972 33.8425 173.758 33.6486 174.189 33.2607C174.62 32.8729 174.836 32.2265 174.836 31.3216C174.836 30.4167 174.609 29.7595 174.157 29.3502C173.726 28.9408 172.95 28.7361 171.83 28.7361C170.774 28.7361 170.009 28.9408 169.535 29.3502C169.083 29.738 168.857 30.3951 168.857 31.3216C168.857 32.1834 169.072 32.819 169.503 33.2284C169.934 33.6378 170.709 33.8425 171.83 33.8425ZM187.895 41.7929C186.667 41.7929 185.504 41.7067 184.405 41.5344C183.306 41.362 182.433 41.1465 181.787 40.888V36.9128C182.541 37.236 183.414 37.4837 184.405 37.6561C185.396 37.8285 186.279 37.9147 187.055 37.9147C187.981 37.9147 188.649 37.8716 189.059 37.7854C189.49 37.6992 189.705 37.4622 189.705 37.0744C189.705 36.6434 189.36 36.3203 188.671 36.1048C187.981 35.8893 187.033 35.5769 185.827 35.1676C184.426 34.672 183.36 34.101 182.627 33.4547C181.916 32.7867 181.561 31.8064 181.561 30.5136C181.561 29.0054 182.121 27.8527 183.241 27.0555C184.383 26.2368 186.193 25.8274 188.671 25.8274C189.64 25.8274 190.599 25.9028 191.547 26.0536C192.495 26.2045 193.271 26.3768 193.874 26.5707V30.4813C193.271 30.2012 192.581 29.9965 191.806 29.8673C191.03 29.738 190.33 29.6733 189.705 29.6733C188.908 29.6733 188.229 29.7272 187.669 29.8349C187.13 29.9211 186.861 30.1474 186.861 30.5136C186.861 30.923 187.163 31.2139 187.766 31.3862C188.369 31.5371 189.242 31.7956 190.384 32.1619C191.59 32.5282 192.527 32.9268 193.195 33.3577C193.863 33.7671 194.337 34.2626 194.617 34.8444C194.898 35.4261 195.038 36.1587 195.038 37.042C195.038 38.5718 194.434 39.7461 193.228 40.5648C192.021 41.3835 190.244 41.7929 187.895 41.7929Z" fill="white"/>
</svg>
