<svg width="305" height="76" viewBox="0 0 305 76" fill="none" xmlns="http://www.w3.org/2000/svg">
<path d="M53.7811 49.7499L32.7011 61.9099V49.7499L43.2411 43.6599V31.4999L53.7811 25.4099V49.7499ZM1.08105 19.3299V55.8299L11.6111 49.7499V25.4099L32.7011 13.0799V0.939941L1.08105 19.3299Z" fill="#31DDAB"/>
<path d="M65.411 19.33C65.4196 19.129 65.3728 18.9294 65.2758 18.7531C65.1789 18.5768 65.0354 18.4304 64.861 18.33L33.251 0.130001C33.1015 0.0452988 32.9328 0.000525672 32.761 0V0C32.5892 0.000525672 32.4205 0.0452988 32.271 0.130001V0.130001L0.550999 18.38C0.376625 18.4804 0.233142 18.6268 0.136166 18.8031C0.0391903 18.9794 -0.00756487 19.179 0.000996068 19.38V55.88C-0.000213764 56.0552 0.0446167 56.2276 0.130997 56.38C0.22205 56.5258 0.345175 56.649 0.490998 56.74C0.490998 56.74 0.490998 56.74 0.490998 56.74L32.101 74.98C32.266 75.0777 32.4542 75.1292 32.646 75.1292C32.8378 75.1292 33.026 75.0777 33.191 74.98L64.791 56.74C64.9486 56.6442 65.0794 56.5101 65.171 56.35V56.35C65.2557 56.2005 65.3005 56.0318 65.301 55.86L65.411 19.33ZM32.701 14.51L51.581 25.41L43.241 30.23L33.241 24.46H33.121C33.0514 24.4263 32.9773 24.4027 32.901 24.39H32.701H32.491C32.4179 24.4027 32.3471 24.4263 32.281 24.46H32.151L22.151 30.23L13.811 25.41L32.701 14.51ZM32.701 48.51L23.271 43.08V32.13L32.701 26.68L42.141 32.13V43.08L32.701 48.51ZM33.801 50.41L43.801 44.64C43.801 44.64 43.861 44.58 43.901 44.55C43.9622 44.5054 44.0191 44.4552 44.071 44.4C44.1133 44.3472 44.1502 44.2902 44.181 44.23C44.2188 44.1743 44.2491 44.1137 44.271 44.05C44.2798 43.9736 44.2798 43.8964 44.271 43.82C44.2767 43.7769 44.2767 43.7332 44.271 43.69V32.13L52.611 27.31V49.08L33.731 59.98L33.801 50.41ZM2.191 19.96L31.611 2.96V12.59L11.081 24.46V24.51C11.0387 24.5368 10.9985 24.5668 10.961 24.6C10.9228 24.6281 10.8891 24.6618 10.861 24.7C10.8286 24.7382 10.7986 24.7782 10.771 24.82V24.87C10.771 24.87 10.771 24.87 10.771 24.93C10.771 24.99 10.771 25.01 10.771 25.06C10.7665 25.1099 10.7665 25.1601 10.771 25.21C10.771 25.21 10.771 25.21 10.771 25.28C10.771 25.35 10.771 25.28 10.771 25.35C10.771 25.42 10.771 25.35 10.771 25.41V49.08L2.421 53.9L2.191 19.96ZM32.701 72.81L3.291 55.81L11.631 50.99L32.161 62.84C32.3144 62.9146 32.4808 62.9587 32.651 62.97V62.97C32.8182 62.9601 32.9816 62.9158 33.131 62.84H33.191L53.781 51.01L62.121 55.83L32.701 72.81Z" fill="#621E95"/>
<path d="M84.55 55V22.8H92.5L101.25 40.65L109.95 22.8H117.85V55H109.8V36.5L103.45 49.5H99L92.6 36.5V55H84.55ZM130.329 55.5C128.829 55.5 127.429 55.2333 126.129 54.7C124.862 54.1667 123.846 53.35 123.079 52.25C122.312 51.1167 121.929 49.7167 121.929 48.05C121.929 45.6167 122.746 43.7167 124.379 42.35C126.046 40.95 128.529 40.25 131.829 40.25H138.429V39.7C138.429 38.5 138.029 37.65 137.229 37.15C136.429 36.6167 134.929 36.35 132.729 36.35C130.029 36.35 127.379 36.7667 124.779 37.6V32.4C125.946 31.9333 127.362 31.55 129.029 31.25C130.729 30.95 132.512 30.8 134.379 30.8C138.046 30.8 140.912 31.55 142.979 33.05C145.079 34.55 146.129 36.9333 146.129 40.2V55H139.079L138.679 53C137.812 53.8 136.696 54.4167 135.329 54.85C133.996 55.2833 132.329 55.5 130.329 55.5ZM132.879 50.55C134.146 50.55 135.246 50.3333 136.179 49.9C137.112 49.4667 137.862 48.9167 138.429 48.25V44.9H132.729C130.362 44.9 129.179 45.85 129.179 47.75C129.179 48.6167 129.479 49.3 130.079 49.8C130.679 50.3 131.612 50.55 132.879 50.55ZM150.956 55V31.3H158.456L158.706 33.35C159.673 32.6833 160.89 32.1 162.356 31.6C163.823 31.0667 165.39 30.8 167.056 30.8C170.123 30.8 172.356 31.5333 173.756 33C175.156 34.4667 175.856 36.7333 175.856 39.8V55H167.806V40.45C167.806 39.1167 167.523 38.1667 166.956 37.6C166.39 37.0333 165.373 36.75 163.906 36.75C163.04 36.75 162.156 36.95 161.256 37.35C160.356 37.75 159.606 38.25 159.006 38.85V55H150.956ZM186.473 63.8C185.273 63.8 184.24 63.7333 183.373 63.6C182.54 63.5 181.706 63.2833 180.873 62.95V57.35C181.44 57.55 181.956 57.6833 182.423 57.75C182.923 57.8167 183.423 57.85 183.923 57.85C185.29 57.85 186.306 57.6 186.973 57.1C187.673 56.6333 188.373 55.7833 189.073 54.55L178.423 31.3H186.873L193.123 46.35L199.273 31.3H207.673L198.623 53.05C197.723 55.2167 196.723 57.1 195.623 58.7C194.523 60.3333 193.24 61.5833 191.773 62.45C190.306 63.35 188.54 63.8 186.473 63.8ZM218.071 55.5C215.471 55.5 213.604 54.9333 212.471 53.8C211.337 52.6667 210.771 50.85 210.771 48.35V21.3H218.821V47.55C218.821 48.3167 218.971 48.85 219.271 49.15C219.604 49.4167 220.087 49.55 220.721 49.55C221.621 49.55 222.421 49.4333 223.121 49.2V54.65C222.354 54.95 221.587 55.1667 220.821 55.3C220.087 55.4333 219.171 55.5 218.071 55.5ZM238.502 55.5C233.935 55.5 230.568 54.45 228.402 52.35C226.235 50.2167 225.152 47.15 225.152 43.15C225.152 39.1833 226.235 36.1333 228.402 34C230.602 31.8667 233.968 30.8 238.502 30.8C243.068 30.8 246.435 31.8667 248.602 34C250.802 36.1333 251.902 39.1833 251.902 43.15C251.902 47.15 250.818 50.2167 248.652 52.35C246.485 54.45 243.102 55.5 238.502 55.5ZM238.502 49.2C240.368 49.2 241.702 48.7333 242.502 47.8C243.302 46.8667 243.702 45.3167 243.702 43.15C243.702 40.9833 243.302 39.4333 242.502 38.5C241.702 37.5667 240.368 37.1 238.502 37.1C236.668 37.1 235.352 37.5667 234.552 38.5C233.752 39.4333 233.352 40.9833 233.352 43.15C233.352 45.3167 233.752 46.8667 234.552 47.8C235.352 48.7333 236.668 49.2 238.502 49.2ZM266.186 63.8C265.019 63.8 263.786 63.75 262.486 63.65C261.186 63.55 259.952 63.4 258.786 63.2C257.619 63 256.619 62.7667 255.786 62.5V57C257.119 57.4333 258.719 57.7667 260.586 58C262.452 58.2333 264.169 58.35 265.736 58.35C267.769 58.35 269.286 58.2333 270.286 58C271.319 57.8 271.836 57.4333 271.836 56.9C271.836 56.4333 271.636 56.1167 271.236 55.95C270.836 55.7833 270.052 55.7 268.886 55.7H262.336C260.202 55.7 258.536 55.3167 257.336 54.55C256.169 53.7833 255.586 52.6667 255.586 51.2C255.586 50.2 255.886 49.25 256.486 48.35C257.119 47.45 258.036 46.7833 259.236 46.35C257.869 45.65 256.836 44.7667 256.136 43.7C255.436 42.6333 255.086 41.2833 255.086 39.65C255.086 36.5833 256.069 34.35 258.036 32.95C260.036 31.5167 262.952 30.8 266.786 30.8C267.586 30.8 268.469 30.8667 269.436 31C270.436 31.1 271.169 31.2 271.636 31.3H280.736L280.536 36.3H277.086C277.919 37.1333 278.336 38.3667 278.336 40C278.336 42.3 277.586 44.15 276.086 45.55C274.619 46.95 272.386 47.65 269.386 47.65C268.886 47.65 268.386 47.6333 267.886 47.6C267.419 47.5333 266.952 47.4833 266.486 47.45C265.619 47.55 264.869 47.7333 264.236 48C263.636 48.2667 263.336 48.65 263.336 49.15C263.336 49.55 263.486 49.8167 263.786 49.95C264.119 50.0833 264.602 50.15 265.236 50.15H271.286C273.719 50.15 275.602 50.7167 276.936 51.85C278.302 52.95 278.986 54.5667 278.986 56.7C278.986 61.4333 274.719 63.8 266.186 63.8ZM266.836 43.2C268.602 43.2 269.819 42.9 270.486 42.3C271.152 41.7 271.486 40.7 271.486 39.3C271.486 37.9 271.136 36.8833 270.436 36.25C269.769 35.6167 268.569 35.3 266.836 35.3C265.202 35.3 264.019 35.6167 263.286 36.25C262.586 36.85 262.236 37.8667 262.236 39.3C262.236 40.6333 262.569 41.6167 263.236 42.25C263.902 42.8833 265.102 43.2 266.836 43.2ZM291.69 55.5C289.79 55.5 287.99 55.3667 286.29 55.1C284.59 54.8333 283.24 54.5 282.24 54.1V47.95C283.407 48.45 284.757 48.8333 286.29 49.1C287.823 49.3667 289.19 49.5 290.39 49.5C291.823 49.5 292.857 49.4333 293.49 49.3C294.157 49.1667 294.49 48.8 294.49 48.2C294.49 47.5333 293.957 47.0333 292.89 46.7C291.823 46.3667 290.357 45.8833 288.49 45.25C286.323 44.4833 284.673 43.6 283.54 42.6C282.44 41.5667 281.89 40.05 281.89 38.05C281.89 35.7167 282.757 33.9333 284.49 32.7C286.257 31.4333 289.057 30.8 292.89 30.8C294.39 30.8 295.873 30.9167 297.34 31.15C298.807 31.3833 300.007 31.65 300.94 31.95V38C300.007 37.5667 298.94 37.25 297.74 37.05C296.54 36.85 295.457 36.75 294.49 36.75C293.257 36.75 292.207 36.8333 291.34 37C290.507 37.1333 290.09 37.4833 290.09 38.05C290.09 38.6833 290.557 39.1333 291.49 39.4C292.423 39.6333 293.773 40.0333 295.54 40.6C297.407 41.1667 298.857 41.7833 299.89 42.45C300.923 43.0833 301.657 43.85 302.09 44.75C302.523 45.65 302.74 46.7833 302.74 48.15C302.74 50.5167 301.807 52.3333 299.94 53.6C298.073 54.8667 295.323 55.5 291.69 55.5Z" fill="#621E95"/>
</svg>
