<svg width="306" height="76" viewBox="0 0 306 76" fill="none" xmlns="http://www.w3.org/2000/svg">
<path d="M53.7811 49.7499L32.7011 61.9099V49.7499L43.2411 43.6599V31.4999L53.7811 25.4099V49.7499ZM1.08105 19.3299V55.8299L11.6111 49.7499V25.4099L32.7011 13.0799V0.939941L1.08105 19.3299Z" fill="white"/>
<path d="M65.411 19.33C65.4196 19.129 65.3728 18.9294 65.2758 18.7531C65.1789 18.5768 65.0354 18.4304 64.861 18.33L33.251 0.130001C33.1015 0.0452988 32.9328 0.000525672 32.761 0V0C32.5892 0.000525672 32.4205 0.0452988 32.271 0.130001V0.130001L0.550999 18.38C0.376625 18.4804 0.233142 18.6268 0.136166 18.8031C0.0391903 18.9794 -0.00756487 19.179 0.000996068 19.38V55.88C-0.000213764 56.0552 0.0446167 56.2276 0.130997 56.38C0.22205 56.5258 0.345175 56.649 0.490998 56.74C0.490998 56.74 0.490998 56.74 0.490998 56.74L32.101 74.98C32.266 75.0777 32.4542 75.1292 32.646 75.1292C32.8378 75.1292 33.026 75.0777 33.191 74.98L64.791 56.74C64.9486 56.6442 65.0794 56.5101 65.171 56.35V56.35C65.2557 56.2005 65.3005 56.0318 65.301 55.86L65.411 19.33ZM32.701 14.51L51.581 25.41L43.241 30.23L33.241 24.46H33.121C33.0514 24.4263 32.9773 24.4027 32.901 24.39H32.701H32.491C32.4179 24.4027 32.3471 24.4263 32.281 24.46H32.151L22.151 30.23L13.811 25.41L32.701 14.51ZM32.701 48.51L23.271 43.08V32.13L32.701 26.68L42.141 32.13V43.08L32.701 48.51ZM33.801 50.41L43.801 44.64C43.801 44.64 43.861 44.58 43.901 44.55C43.9622 44.5054 44.0191 44.4552 44.071 44.4C44.1133 44.3472 44.1502 44.2902 44.181 44.23C44.2188 44.1743 44.2491 44.1137 44.271 44.05C44.2798 43.9736 44.2798 43.8964 44.271 43.82C44.2767 43.7769 44.2767 43.7332 44.271 43.69V32.13L52.611 27.31V49.08L33.731 59.98L33.801 50.41ZM2.191 19.96L31.611 2.96V12.59L11.081 24.46V24.51C11.0387 24.5368 10.9985 24.5668 10.961 24.6C10.9228 24.6281 10.8891 24.6618 10.861 24.7C10.8286 24.7382 10.7986 24.7782 10.771 24.82V24.87C10.771 24.87 10.771 24.87 10.771 24.93C10.771 24.99 10.771 25.01 10.771 25.06C10.7665 25.1099 10.7665 25.1601 10.771 25.21C10.771 25.21 10.771 25.21 10.771 25.28C10.771 25.35 10.771 25.28 10.771 25.35C10.771 25.42 10.771 25.35 10.771 25.41V49.08L2.421 53.9L2.191 19.96ZM32.701 72.81L3.291 55.81L11.631 50.99L32.161 62.84C32.3144 62.9146 32.4808 62.9587 32.651 62.97V62.97C32.8182 62.9601 32.9816 62.9158 33.131 62.84H33.191L53.781 51.01L62.121 55.83L32.701 72.81Z" fill="#621E95"/>
<path d="M85.55 55V22.8H93.5L102.25 40.65L110.95 22.8H118.85V55H110.8V36.5L104.45 49.5H100L93.6 36.5V55H85.55ZM131.329 55.5C129.829 55.5 128.429 55.2333 127.129 54.7C125.862 54.1667 124.846 53.35 124.079 52.25C123.312 51.1167 122.929 49.7167 122.929 48.05C122.929 45.6167 123.746 43.7167 125.379 42.35C127.046 40.95 129.529 40.25 132.829 40.25H139.429V39.7C139.429 38.5 139.029 37.65 138.229 37.15C137.429 36.6167 135.929 36.35 133.729 36.35C131.029 36.35 128.379 36.7667 125.779 37.6V32.4C126.946 31.9333 128.362 31.55 130.029 31.25C131.729 30.95 133.512 30.8 135.379 30.8C139.046 30.8 141.912 31.55 143.979 33.05C146.079 34.55 147.129 36.9333 147.129 40.2V55H140.079L139.679 53C138.812 53.8 137.696 54.4167 136.329 54.85C134.996 55.2833 133.329 55.5 131.329 55.5ZM133.879 50.55C135.146 50.55 136.246 50.3333 137.179 49.9C138.112 49.4667 138.862 48.9167 139.429 48.25V44.9H133.729C131.362 44.9 130.179 45.85 130.179 47.75C130.179 48.6167 130.479 49.3 131.079 49.8C131.679 50.3 132.612 50.55 133.879 50.55ZM151.956 55V31.3H159.456L159.706 33.35C160.673 32.6833 161.89 32.1 163.356 31.6C164.823 31.0667 166.39 30.8 168.056 30.8C171.123 30.8 173.356 31.5333 174.756 33C176.156 34.4667 176.856 36.7333 176.856 39.8V55H168.806V40.45C168.806 39.1167 168.523 38.1667 167.956 37.6C167.39 37.0333 166.373 36.75 164.906 36.75C164.04 36.75 163.156 36.95 162.256 37.35C161.356 37.75 160.606 38.25 160.006 38.85V55H151.956ZM187.473 63.8C186.273 63.8 185.24 63.7333 184.373 63.6C183.54 63.5 182.706 63.2833 181.873 62.95V57.35C182.44 57.55 182.956 57.6833 183.423 57.75C183.923 57.8167 184.423 57.85 184.923 57.85C186.29 57.85 187.306 57.6 187.973 57.1C188.673 56.6333 189.373 55.7833 190.073 54.55L179.423 31.3H187.873L194.123 46.35L200.273 31.3H208.673L199.623 53.05C198.723 55.2167 197.723 57.1 196.623 58.7C195.523 60.3333 194.24 61.5833 192.773 62.45C191.306 63.35 189.54 63.8 187.473 63.8ZM219.071 55.5C216.471 55.5 214.604 54.9333 213.471 53.8C212.337 52.6667 211.771 50.85 211.771 48.35V21.3H219.821V47.55C219.821 48.3167 219.971 48.85 220.271 49.15C220.604 49.4167 221.087 49.55 221.721 49.55C222.621 49.55 223.421 49.4333 224.121 49.2V54.65C223.354 54.95 222.587 55.1667 221.821 55.3C221.087 55.4333 220.171 55.5 219.071 55.5ZM239.502 55.5C234.935 55.5 231.568 54.45 229.402 52.35C227.235 50.2167 226.152 47.15 226.152 43.15C226.152 39.1833 227.235 36.1333 229.402 34C231.602 31.8667 234.968 30.8 239.502 30.8C244.068 30.8 247.435 31.8667 249.602 34C251.802 36.1333 252.902 39.1833 252.902 43.15C252.902 47.15 251.818 50.2167 249.652 52.35C247.485 54.45 244.102 55.5 239.502 55.5ZM239.502 49.2C241.368 49.2 242.702 48.7333 243.502 47.8C244.302 46.8667 244.702 45.3167 244.702 43.15C244.702 40.9833 244.302 39.4333 243.502 38.5C242.702 37.5667 241.368 37.1 239.502 37.1C237.668 37.1 236.352 37.5667 235.552 38.5C234.752 39.4333 234.352 40.9833 234.352 43.15C234.352 45.3167 234.752 46.8667 235.552 47.8C236.352 48.7333 237.668 49.2 239.502 49.2ZM267.186 63.8C266.019 63.8 264.786 63.75 263.486 63.65C262.186 63.55 260.952 63.4 259.786 63.2C258.619 63 257.619 62.7667 256.786 62.5V57C258.119 57.4333 259.719 57.7667 261.586 58C263.452 58.2333 265.169 58.35 266.736 58.35C268.769 58.35 270.286 58.2333 271.286 58C272.319 57.8 272.836 57.4333 272.836 56.9C272.836 56.4333 272.636 56.1167 272.236 55.95C271.836 55.7833 271.052 55.7 269.886 55.7H263.336C261.202 55.7 259.536 55.3167 258.336 54.55C257.169 53.7833 256.586 52.6667 256.586 51.2C256.586 50.2 256.886 49.25 257.486 48.35C258.119 47.45 259.036 46.7833 260.236 46.35C258.869 45.65 257.836 44.7667 257.136 43.7C256.436 42.6333 256.086 41.2833 256.086 39.65C256.086 36.5833 257.069 34.35 259.036 32.95C261.036 31.5167 263.952 30.8 267.786 30.8C268.586 30.8 269.469 30.8667 270.436 31C271.436 31.1 272.169 31.2 272.636 31.3H281.736L281.536 36.3H278.086C278.919 37.1333 279.336 38.3667 279.336 40C279.336 42.3 278.586 44.15 277.086 45.55C275.619 46.95 273.386 47.65 270.386 47.65C269.886 47.65 269.386 47.6333 268.886 47.6C268.419 47.5333 267.952 47.4833 267.486 47.45C266.619 47.55 265.869 47.7333 265.236 48C264.636 48.2667 264.336 48.65 264.336 49.15C264.336 49.55 264.486 49.8167 264.786 49.95C265.119 50.0833 265.602 50.15 266.236 50.15H272.286C274.719 50.15 276.602 50.7167 277.936 51.85C279.302 52.95 279.986 54.5667 279.986 56.7C279.986 61.4333 275.719 63.8 267.186 63.8ZM267.836 43.2C269.602 43.2 270.819 42.9 271.486 42.3C272.152 41.7 272.486 40.7 272.486 39.3C272.486 37.9 272.136 36.8833 271.436 36.25C270.769 35.6167 269.569 35.3 267.836 35.3C266.202 35.3 265.019 35.6167 264.286 36.25C263.586 36.85 263.236 37.8667 263.236 39.3C263.236 40.6333 263.569 41.6167 264.236 42.25C264.902 42.8833 266.102 43.2 267.836 43.2ZM292.69 55.5C290.79 55.5 288.99 55.3667 287.29 55.1C285.59 54.8333 284.24 54.5 283.24 54.1V47.95C284.407 48.45 285.757 48.8333 287.29 49.1C288.823 49.3667 290.19 49.5 291.39 49.5C292.823 49.5 293.857 49.4333 294.49 49.3C295.157 49.1667 295.49 48.8 295.49 48.2C295.49 47.5333 294.957 47.0333 293.89 46.7C292.823 46.3667 291.357 45.8833 289.49 45.25C287.323 44.4833 285.673 43.6 284.54 42.6C283.44 41.5667 282.89 40.05 282.89 38.05C282.89 35.7167 283.757 33.9333 285.49 32.7C287.257 31.4333 290.057 30.8 293.89 30.8C295.39 30.8 296.873 30.9167 298.34 31.15C299.807 31.3833 301.007 31.65 301.94 31.95V38C301.007 37.5667 299.94 37.25 298.74 37.05C297.54 36.85 296.457 36.75 295.49 36.75C294.257 36.75 293.207 36.8333 292.34 37C291.507 37.1333 291.09 37.4833 291.09 38.05C291.09 38.6833 291.557 39.1333 292.49 39.4C293.423 39.6333 294.773 40.0333 296.54 40.6C298.407 41.1667 299.857 41.7833 300.89 42.45C301.923 43.0833 302.657 43.85 303.09 44.75C303.523 45.65 303.74 46.7833 303.74 48.15C303.74 50.5167 302.807 52.3333 300.94 53.6C299.073 54.8667 296.323 55.5 292.69 55.5Z" fill="#621E95"/>
</svg>
